<?xml version="1.0" encoding="UTF-8"?>
<svg version="1.1" xmlns="http://www.w3.org/2000/svg" width="559" height="447">
<path d="M0 0 C3 1 3 1 4.6484375 3.95703125 C5.23531877 5.23703953 5.81011358 6.52263406 6.375 7.8125 C6.68244141 8.49393066 6.98988281 9.17536133 7.30664062 9.87744141 C10.27554937 16.50170283 13.05864855 23.20007537 15.78027344 29.92919922 C19.90020226 40.10402926 24.29536301 50.08303138 29 60 C29.90131501 61.93495604 30.7976495 63.87224494 31.6875 65.8125 C32.04199219 66.58207031 32.39648438 67.35164063 32.76171875 68.14453125 C33.84580886 70.64443621 34.86839502 73.15576595 35.875 75.6875 C37.94343233 80.88822628 40.10688214 86.04362897 42.3125 91.1875 C42.70566406 92.1053125 43.09882813 93.023125 43.50390625 93.96875 C46.27228346 100.39533996 49.18838997 106.73070736 52.18359375 113.0546875 C54.84476409 118.75740764 57.26386824 124.56700213 59.72338867 130.35864258 C62.28423366 136.37467452 64.96704634 142.31228396 67.73828125 148.234375 C69.25782178 151.56513257 70.61074497 154.94345204 71.9453125 158.3515625 C76.37240913 169.46849403 81.38118483 180.33495054 86.48828125 191.15234375 C86.94589844 192.13332031 87.40351563 193.11429688 87.875 194.125 C88.28492188 194.99382812 88.69484375 195.86265625 89.1171875 196.7578125 C90 199 90 199 90 202 C84.42833063 201.37691218 79.69433375 199.43713207 74.5625 197.3125 C72.7852517 196.58700571 71.00790692 195.86174773 69.23046875 195.13671875 C68.35181152 194.77626465 67.4731543 194.41581055 66.56787109 194.04443359 C64.19429993 193.07902786 61.81352209 192.13673841 59.42578125 191.20703125 C58.39312134 190.80327271 58.39312134 190.80327271 57.33959961 190.39135742 C55.48494166 189.6678864 53.6292222 188.94713834 51.7734375 188.2265625 C48.82805702 186.92395761 47.45941993 186.02951829 46.140625 183.07421875 C45.84671875 182.28660156 45.5528125 181.49898437 45.25 180.6875 C43.67176687 176.60404179 41.93143921 172.64638409 40.0625 168.6875 C37.46579892 163.13910579 35.20760422 157.51983938 33.078125 151.77734375 C32.0813154 149.05735037 32.0813154 149.05735037 30.859375 146.81640625 C30 145 30 145 30 142 C23.06643445 144.64230435 16.94099001 148.51688346 10.625 152.375 C4.25057759 156.25113334 -2.11391742 160.10193299 -8.65771484 163.68554688 C-12.56458539 165.8780204 -16.38656776 168.21153153 -20.2253418 170.52050781 C-33.56401735 178.53233419 -47.09526937 186.00360039 -61 193 C-61.70825928 193.35819824 -62.41651855 193.71639648 -63.14624023 194.08544922 C-67.62555979 196.34109689 -72.14089597 198.50855817 -76.6875 200.625 C-77.32494141 200.9240625 -77.96238281 201.223125 -78.61914062 201.53125 C-82.04206598 203.12790868 -85.47648462 204.63910114 -89 206 C-88.3748059 202.33703023 -87.36014835 199.14325914 -85.92578125 195.71875 C-85.30026367 194.2191272 -85.30026367 194.2191272 -84.66210938 192.68920898 C-84.21673828 191.63677002 -83.77136719 190.58433105 -83.3125 189.5 C-82.85552734 188.41211182 -82.39855469 187.32422363 -81.92773438 186.20336914 C-79.27742094 179.9248518 -76.54653208 173.70731068 -73.6328125 167.546875 C-70.84325192 161.48725536 -68.23101401 155.34901962 -65.6015625 149.21850586 C-63.47940946 144.29633641 -61.27509336 139.457777 -58.83984375 134.68286133 C-57.79105041 132.58131118 -56.90568121 130.44149403 -56.0625 128.25 C-52.60090158 119.43623788 -48.90856333 110.74905586 -45 102.125 C-40.99624424 93.28751535 -37.10633267 84.40250785 -33.25 75.5 C-32.83886963 74.55208588 -32.83886963 74.55208588 -32.41943359 73.58502197 C-29.24161974 66.25503307 -26.10873014 58.90928449 -23.07543945 51.51806641 C-21.82647272 48.59369798 -20.40727825 45.78776528 -18.95288086 42.96191406 C-17.92060252 40.83652621 -17.05021561 38.68551547 -16.19140625 36.484375 C-13.91135824 30.72919025 -11.47083696 25.05043762 -9 19.375 C-8.57460938 18.39015625 -8.14921875 17.4053125 -7.7109375 16.390625 C-5.29695958 10.83699483 -2.76438561 5.38799233 0 0 Z M0 80 C-0.27972656 80.69222656 -0.55945313 81.38445312 -0.84765625 82.09765625 C-3.15918852 87.7389842 -5.58017739 93.30128728 -8.1875 98.8125 C-11.38027144 105.57692328 -14.4301071 112.40127601 -17.4375 119.25 C-17.88697998 120.26296143 -18.33645996 121.27592285 -18.79956055 122.31958008 C-19.2150415 123.2711499 -19.63052246 124.22271973 -20.05859375 125.203125 C-20.62018188 126.48171387 -20.62018188 126.48171387 -21.19311523 127.78613281 C-22.17121673 130.07705009 -22.17121673 130.07705009 -22 133 C-17.35026943 131.38426351 -13.4848168 128.89624719 -9.375 126.25 C-3.79540817 122.70538572 1.81766909 119.34028481 7.66796875 116.25390625 C10.16222833 114.9127717 12.58183416 113.47323425 15 112 C14.3022498 106.88663658 12.20414879 102.39057386 10.1875 97.6875 C9.84396484 96.87087891 9.50042969 96.05425781 9.14648438 95.21289062 C6.94849633 90.03751539 4.56280662 85.00467181 2 80 C1.34 80 0.68 80 0 80 Z " fill="#DB2A8F" transform="translate(279,121)"/>
<path d="M0 0 C0.66 0.33 1.32 0.66 2 1 C2 1.66 2 2.32 2 3 C4.64 3.33 7.28 3.66 10 4 C6.77264621 6.60701085 3.40316406 8.41573908 -0.3125 10.25 C-0.91698975 10.54865967 -1.52147949 10.84731934 -2.14428711 11.1550293 C-6.76045832 13.42313138 -11.40490388 15.63089655 -16.0625 17.8125 C-16.6810083 18.1022168 -17.2995166 18.39193359 -17.93676758 18.69042969 C-21.25455948 20.23071968 -24.58919419 21.67823215 -28 23 C-27.31429734 18.67098559 -25.86950601 14.77345854 -24.1875 10.75 C-23.8152832 9.79480469 -23.8152832 9.79480469 -23.43554688 8.8203125 C-21.50954607 4.21359303 -21.50954607 4.21359303 -18.80078125 3.078125 C-18.20652344 3.05234375 -17.61226562 3.0265625 -17 3 C-17.33 4.98 -17.66 6.96 -18 9 C-16.02 9 -14.04 9 -12 9 C-12 9.66 -12 10.32 -12 11 C-10.35 11 -8.7 11 -7 11 C-7 10.34 -7 9.68 -7 9 C-4.69 8.34 -2.38 7.68 0 7 C-0.185625 6.21625 -0.37125 5.4325 -0.5625 4.625 C-1 2 -1 2 0 0 Z " fill="#C261A4" transform="translate(218,304)"/>
<path d="M0 0 C0.33 0.66 0.66 1.32 1 2 C1.66 2.33 2.32 2.66 3 3 C2.525625 3.7425 2.05125 4.485 1.5625 5.25 C0.17533221 7.6914153 -0.35436206 9.33674349 -1 12 C-1.495 12.969375 -1.99 13.93875 -2.5 14.9375 C-3.86152622 17.7172827 -4.55317708 19.96160412 -5 23 C-5.66 23 -6.32 23 -7 23 C-7.33 26.63 -7.66 30.26 -8 34 C-8.66 34 -9.32 34 -10 34 C-10.33 34.99 -10.66 35.98 -11 37 C-10.34 37.66 -9.68 38.32 -9 39 C-10.64318361 40.72534279 -12.05794046 42.03408262 -14.125 43.25 C-16.88046566 45.82176795 -16.72504843 48.35689175 -17 52 C-17.99 52 -18.98 52 -20 52 C-19.67 54.31 -19.34 56.62 -19 59 C-21.97 59.495 -21.97 59.495 -25 60 C-23.6843634 54.34276264 -21.39093802 49.38501419 -18.9140625 44.14453125 C-15.99541511 37.90406471 -13.31855945 31.55358793 -10.60351562 25.22265625 C-8.48166187 20.30183269 -6.26606601 15.47707036 -3.83056641 10.7043457 C-2.76841917 8.5247896 -1.97267113 6.31254763 -1.25 4 C-1.00765625 3.236875 -0.7653125 2.47375 -0.515625 1.6875 C-0.34546875 1.130625 -0.1753125 0.57375 0 0 Z " fill="#BE59A1" transform="translate(224,245)"/>
<path d="M0 0 C1.87988281 0.29541016 1.87988281 0.29541016 4 1 C5.4500783 3.46984881 6.62021639 5.76631509 7.75 8.375 C8.06582031 9.06078125 8.38164062 9.7465625 8.70703125 10.453125 C10.05486384 13.45219839 11 15.67828502 11 19 C5.11792344 18.38443385 0.03902565 16.17339219 -5.375 13.9375 C-6.30183594 13.56044922 -7.22867187 13.18339844 -8.18359375 12.79492188 C-10.45802479 11.86873604 -12.72999667 10.93697332 -15 10 C-15 9.67 -15 9.34 -15 9 C-13.54176788 8.9729957 -12.08339325 8.95360213 -10.625 8.9375 C-9.81289063 8.92589844 -9.00078125 8.91429687 -8.1640625 8.90234375 C-6 9 -6 9 -4 10 C-4 9.34 -4 8.68 -4 8 C-2.68 7.67 -1.36 7.34 0 7 C-0.66 6.67 -1.32 6.34 -2 6 C-1.49396008 3.83125748 -1.00016187 2.00032373 0 0 Z " fill="#E83782" transform="translate(358,304)"/>
<path d="M0 0 C1.50559539 1.96382007 2.89131683 3.78263366 4 6 C3.360625 6.391875 2.72125 6.78375 2.0625 7.1875 C-0.49182426 9.4322092 -0.75508567 10.65283742 -1 14 C-0.7525 14.66 -0.505 15.32 -0.25 16 C-0.12625 16.99 -0.12625 16.99 0 18 C-1.6436814 19.68933922 -3.3142876 21.35259924 -5 23 C-6.03842565 25.31648799 -7.0421975 27.64903024 -8 30 C-9.5625 31.9375 -9.5625 31.9375 -11 33 C-11.66 33 -12.32 33 -13 33 C-12.36349031 29.07036176 -11.15753941 25.77608952 -9.53125 22.1484375 C-8.79841797 20.50101563 -8.79841797 20.50101563 -8.05078125 18.8203125 C-7.53902344 17.68335938 -7.02726563 16.54640625 -6.5 15.375 C-5.48848581 13.11246952 -4.47801932 10.84947027 -3.46875 8.5859375 C-2.79489258 7.08619385 -2.79489258 7.08619385 -2.10742188 5.55615234 C-0.93730229 2.95685164 -0.93730229 2.95685164 0 0 Z " fill="#C4549C" transform="translate(240,209)"/>
<path d="M0 0 C0.33 0 0.66 0 1 0 C1.33833451 4.84946127 0.46493166 6.92338226 -2 11 C-2.82803762 13.97089861 -3.43859408 16.96840805 -4 20 C-4.66 20 -5.32 20 -6 20 C-5.938125 21.5159375 -5.938125 21.5159375 -5.875 23.0625 C-6.00573843 27.18076052 -6.73250786 30.11830533 -8 34 C-8.66 34 -9.32 34 -10 34 C-10.33 34.99 -10.66 35.98 -11 37 C-12.32 37 -13.64 37 -15 37 C-13.69355588 31.98016544 -11.95229125 27.42258965 -9.6875 22.75 C-9.06345324 21.43636358 -8.4397582 20.12256002 -7.81640625 18.80859375 C-7.50977051 18.16647949 -7.20313477 17.52436523 -6.88720703 16.86279297 C-5.6134191 14.18832904 -4.36385474 11.50330695 -3.125 8.8125 C-2.73570312 7.97332031 -2.34640625 7.13414062 -1.9453125 6.26953125 C-1.07722341 4.18539999 -0.47601107 2.2028172 0 0 Z " fill="#CE559F" transform="translate(256,172)"/>
<path d="M0 0 C0.763125 0.20625 1.52625 0.4125 2.3125 0.625 C-2.05642713 4.41790226 -6.83068901 7.10525861 -11.875 9.875 C-12.69419922 10.33390625 -13.51339844 10.7928125 -14.35742188 11.265625 C-20.43129185 14.625 -20.43129185 14.625 -22.6875 14.625 C-21.9375 12.6875 -21.9375 12.6875 -20.6875 10.625 C-18.5625 9.875 -18.5625 9.875 -16.6875 9.625 C-17.3475 8.305 -18.0075 6.985 -18.6875 5.625 C-16.35126225 3.79981425 -14.59851935 2.61489627 -11.57421875 2.6484375 C-9.60212383 2.90764713 -7.64286303 3.26044079 -5.6875 3.625 C-5.6875 2.965 -5.6875 2.305 -5.6875 1.625 C-2.6875 -0.375 -2.6875 -0.375 0 0 Z " fill="#C82F8E" transform="translate(250.6875,293.375)"/>
<path d="M0 0 C0.5534764 2.07553648 1 3.84365964 1 6 C2.65 6 4.3 6 6 6 C5.34 7.98 4.68 9.96 4 12 C2.35 12 0.7 12 -1 12 C-1.33 12.99 -1.66 13.98 -2 15 C-3.65 15.33 -5.3 15.66 -7 16 C-7.57198641 10.42313253 -5.95596704 5.69593426 -3 1 C-2.01 0.67 -1.02 0.34 0 0 Z " fill="#B73592" transform="translate(200,307)"/>
<path d="M0 0 C0.33 0.66 0.66 1.32 1 2 C1.66 2.33 2.32 2.66 3 3 C2.525625 3.7425 2.05125 4.485 1.5625 5.25 C0.17533221 7.6914153 -0.35436206 9.33674349 -1 12 C-1.495 12.969375 -1.99 13.93875 -2.5 14.9375 C-3.86152622 17.7172827 -4.55317708 19.96160412 -5 23 C-5.99 23 -6.98 23 -8 23 C-8 23.66 -8 24.32 -8 25 C-8.66 24.67 -9.32 24.34 -10 24 C-9.4225 22.906875 -8.845 21.81375 -8.25 20.6875 C-6.12031516 16.44323448 -4.49786819 12.09102032 -2.9296875 7.61328125 C-2.016622 5.04672318 -1.02727347 2.52272909 0 0 Z " fill="#C25A9F" transform="translate(224,245)"/>
<path d="M0 0 C2.4291373 3.01327002 4.09184125 6.0405505 5.6875 9.5625 C6.34298828 10.98755859 6.34298828 10.98755859 7.01171875 12.44140625 C8 15 8 15 8 18 C3.78087253 17.5205537 1.20336822 16.83374881 -2 14 C-0.02 14 1.96 14 4 14 C4 13.34 4 12.68 4 12 C3.34 12 2.68 12 2 12 C0.70756464 7.8803623 -0.26252625 4.33168317 0 0 Z " fill="#DF6195" transform="translate(361,305)"/>
<path d="M0 0 C1.50559539 1.96382007 2.89131683 3.78263366 4 6 C3.360625 6.391875 2.72125 6.78375 2.0625 7.1875 C-0.49182426 9.4322092 -0.75508567 10.65283742 -1 14 C-0.79375 14.680625 -0.5875 15.36125 -0.375 16.0625 C0 18 0 18 -1.4375 20.25 C-1.953125 20.8275 -2.46875 21.405 -3 22 C-3.66 21.67 -4.32 21.34 -5 21 C-4.19845754 13.78611782 -2.29265556 6.87796669 0 0 Z " fill="#C7308F" transform="translate(240,209)"/>
<path d="M0 0 C1.37432457 3.81756824 0.67975039 7.07255329 0 11 C-0.66 11 -1.32 11 -2 11 C-2 11.66 -2 12.32 -2 13 C-3.375 14.5 -3.375 14.5 -5 16 C-5.66 16.66 -6.32 17.32 -7 18 C-6.02541328 12.19834261 -4.98746845 7.16017278 -2 2 C-1.34 2 -0.68 2 0 2 C0 1.34 0 0.68 0 0 Z " fill="#B8378C" transform="translate(216,268)"/>
<path d="M0 0 C0.66 0 1.32 0 2 0 C2 0.66 2 1.32 2 2 C3.32 2.66 4.64 3.32 6 4 C6 5.65 6 7.3 6 9 C6.66 9.33 7.32 9.66 8 10 C8 11.65 8 13.3 8 15 C8.66 15 9.32 15 10 15 C10.33 17.64 10.66 20.28 11 23 C8.77906401 20.77906401 8.16269654 19.16618359 7.0625 16.25 C5.89848819 13.2331604 4.69934762 10.39869525 3.25 7.5 C2 5 2 5 2 3 C1.34 3 0.68 3 0 3 C-0.33 4.65 -0.66 6.3 -1 8 C-1.33 8 -1.66 8 -2 8 C-2.20086443 4.28400809 -2.1519437 3.22791555 0 0 Z " fill="#DD6FAE" transform="translate(279,198)"/>
<path d="M0 0 C2.13265053 3.1989758 3.65963865 6.49131134 5.1875 10 C5.47302734 10.6290625 5.75855469 11.258125 6.05273438 11.90625 C8.11727722 16.64816835 8.11727722 16.64816835 7 20 C6.34 19.67 5.68 19.34 5 19 C5.33 18.01 5.66 17.02 6 16 C3.525 15.01 3.525 15.01 1 14 C0.67 9.38 0.34 4.76 0 0 Z " fill="#E1539C" transform="translate(315,199)"/>
<path d="M0 0 C0.28488281 0.5775 0.56976563 1.155 0.86328125 1.75 C1.58554817 3.17964173 2.3306229 4.59815875 3.10546875 6 C3.46253906 6.66 3.81960938 7.32 4.1875 8 C4.55230469 8.66 4.91710937 9.32 5.29296875 10 C6.14379438 12.40675537 5.83139386 13.62761499 5 16 C3.68 15.67 2.36 15.34 1 15 C1 12.69 1 10.38 1 8 C0.01 7.67 -0.98 7.34 -2 7 C-2 6.34 -2 5.68 -2 5 C-1.34 5 -0.68 5 0 5 C0 3.35 0 1.7 0 0 Z " fill="#E34C91" transform="translate(347,272)"/>
<path d="M0 0 C1.31223496 3.93670488 0.24296256 6.12488144 -1 10 C-1.66 10 -2.32 10 -3 10 C-3.33 10.99 -3.66 11.98 -4 13 C-5.32 13 -6.64 13 -8 13 C-7.1875 9.5625 -7.1875 9.5625 -6 6 C-5.01 5.67 -4.02 5.34 -3 5 C-3 4.34 -3 3.68 -3 3 C-2.34 3 -1.68 3 -1 3 C-0.67 2.01 -0.34 1.02 0 0 Z " fill="#CE479C" transform="translate(249,196)"/>
<path d="M0 0 C0.99 0.33 1.98 0.66 3 1 C3.6875 3.8125 3.6875 3.8125 4 7 C2.5625 8.875 2.5625 8.875 1 10 C1.33 10.66 1.66 11.32 2 12 C0.68 12.33 -0.64 12.66 -2 13 C-1.85915204 11.20793453 -1.71216299 9.41635083 -1.5625 7.625 C-1.48128906 6.62726563 -1.40007812 5.62953125 -1.31640625 4.6015625 C-1 2 -1 2 0 0 Z " fill="#D83D98" transform="translate(279,121)"/>
<path d="M0 0 C0.66 0 1.32 0 2 0 C2.3690205 10.55808656 2.3690205 10.55808656 0 15 C-1.32 14.67 -2.64 14.34 -4 14 C-4 12.68 -4 11.36 -4 10 C-3.34 10 -2.68 10 -2 10 C-2.04125 9.278125 -2.0825 8.55625 -2.125 7.8125 C-1.99078695 4.79270631 -1.24829381 2.73064271 0 0 Z " fill="#C13091" transform="translate(221,258)"/>
<path d="M0 0 C1.65 0.33 3.3 0.66 5 1 C5 1.66 5 2.32 5 3 C3.04414675 4.00484204 1.08523763 5.00373805 -0.875 6 C-1.96554688 6.556875 -3.05609375 7.11375 -4.1796875 7.6875 C-7 9 -7 9 -9 9 C-8.45276317 5.62537285 -7.9451 3.91765 -6 1 C-6 2.32 -6 3.64 -6 5 C-4.35 4.67 -2.7 4.34 -1 4 C-0.67 2.68 -0.34 1.36 0 0 Z " fill="#B85D9B" transform="translate(199,318)"/>
<path d="M0 0 C1.32 0 2.64 0 4 0 C4.69699552 1.45381897 5.38233866 2.91322953 6.0625 4.375 C6.63677734 5.59316406 6.63677734 5.59316406 7.22265625 6.8359375 C7.47917969 7.55007813 7.73570312 8.26421875 8 9 C7.67 9.66 7.34 10.32 7 11 C6.01 10.67 5.02 10.34 4 10 C3.28272222 8.35448038 2.61674772 6.68577711 2 5 C1.34 4.34 0.68 3.68 0 3 C0 2.01 0 1.02 0 0 Z " fill="#E45190" transform="translate(353,294)"/>
<path d="M0 0 C1.39211215 4.17633644 -0.0464421 5.78960515 -1.9375 9.6875 C-2.50339844 10.86699219 -3.06929688 12.04648438 -3.65234375 13.26171875 C-4.09707031 14.16535156 -4.54179687 15.06898438 -5 16 C-5.33 16 -5.66 16 -6 16 C-6 13.69 -6 11.38 -6 9 C-5.34 9 -4.68 9 -4 9 C-4 7.35 -4 5.7 -4 4 C-3.34 4 -2.68 4 -2 4 C-2 3.01 -2 2.02 -2 1 C-1.34 0.67 -0.68 0.34 0 0 Z " fill="#D560A8" transform="translate(263,235)"/>
<path d="M0 0 C0.66 0.33 1.32 0.66 2 1 C2 1.66 2 2.32 2 3 C4.64 3.33 7.28 3.66 10 4 C6.79663178 6.83374881 4.21912747 7.5205537 0 8 C-1.125 2.25 -1.125 2.25 0 0 Z " fill="#C44898" transform="translate(218,304)"/>
<path d="M0 0 C1.65 0 3.3 0 5 0 C5 0.66 5 1.32 5 2 C0.05251908 4.78158372 -4.8954653 7.5131754 -10 10 C-10 9.01 -10 8.02 -10 7 C-8.68 7 -7.36 7 -6 7 C-5.67 6.01 -5.34 5.02 -5 4 C-4.34 4 -3.68 4 -3 4 C-3 3.34 -3 2.68 -3 2 C-2.01 2 -1.02 2 0 2 C0 1.34 0 0.68 0 0 Z " fill="#D563A8" transform="translate(272,279)"/>
<path d="M0 0 C1.65 0 3.3 0 5 0 C1.0826156 3.42771135 -4.52151811 8 -10 8 C-8.94901234 5.13367003 -8.33137046 4.16993357 -5.5625 2.75 C-3 2 -3 2 0 2 C0 1.34 0 0.68 0 0 Z " fill="#CA6CA9" transform="translate(238,300)"/>
<path d="M0 0 C3.2428329 3.72925783 5.5119901 8.30238735 7 13 C6.67 13.99 6.34 14.98 6 16 C-0.43181245 8.80249559 -0.43181245 8.80249559 -0.375 3.5 C-0.25125 2.345 -0.1275 1.19 0 0 Z " fill="#E36AA7" transform="translate(324,220)"/>
<path d="M0 0 C0.33 1.32 0.66 2.64 1 4 C1.33 3.34 1.66 2.68 2 2 C3.32 2.66 4.64 3.32 6 4 C3.63379989 6.61527381 1.057952 8.26440562 -2 10 C-1.125 2.25 -1.125 2.25 0 0 Z " fill="#C353A1" transform="translate(209,280)"/>
<path d="M0 0 C0.33 0.99 0.66 1.98 1 3 C1.99 3.33 2.98 3.66 4 4 C1.9927092 7.0109362 1.16115776 7.63016497 -2 9 C-2.6875 6.1875 -2.6875 6.1875 -3 3 C-1.5625 1.125 -1.5625 1.125 0 0 Z " fill="#C03D92" transform="translate(228,241)"/>
<path d="M0 0 C0.33 0 0.66 0 1 0 C0.5188509 5.77378925 -1.18467181 9.95859836 -4 15 C-5.22419163 11.06204091 -4.48320272 8.83887763 -3 5 C-2.34 5 -1.68 5 -1 5 C-0.67 3.35 -0.34 1.7 0 0 Z " fill="#D564A3" transform="translate(272,213)"/>
<path d="M0 0 C0.763125 0.20625 1.52625 0.4125 2.3125 0.625 C-0.88740508 3.36777578 -3.69249382 5.2552836 -7.6875 6.625 C-8.0175 5.635 -8.3475 4.645 -8.6875 3.625 C-7.6975 3.625 -6.7075 3.625 -5.6875 3.625 C-5.6875 2.965 -5.6875 2.305 -5.6875 1.625 C-2.6875 -0.375 -2.6875 -0.375 0 0 Z " fill="#D161A4" transform="translate(250.6875,293.375)"/>
<path d="M0 0 C0.66 0.33 1.32 0.66 2 1 C0.98667605 4.03997185 0.59230504 5.21220342 -2 7 C-5.1875 6.6875 -5.1875 6.6875 -8 6 C-5.63404067 3.38499232 -3.13950774 1.61000397 0 0 Z " fill="#D95DA7" transform="translate(270,246)"/>
<path d="M0 0 C2.97 0 5.94 0 9 0 C9 0.99 9 1.98 9 3 C9.99 3 10.98 3 12 3 C12 3.66 12 4.32 12 5 C10.37276701 4.54965877 8.74826336 4.08944646 7.125 3.625 C5.76761719 3.24214844 5.76761719 3.24214844 4.3828125 2.8515625 C2 2 2 2 0 0 Z " fill="#E475A6" transform="translate(343,313)"/>
<path d="M0 0 C0.99 0 1.98 0 3 0 C3.99 2.97 4.98 5.94 6 9 C4 9 4 9 1.875 7.3125 C0 5 0 5 -0.25 2.25 C-0.1675 1.5075 -0.085 0.765 0 0 Z " fill="#E25A9E" transform="translate(331,240)"/>
<path d="M0 0 C1.98 0 3.96 0 6 0 C6.66 1.65 7.32 3.3 8 5 C6.35 5.66 4.7 6.32 3 7 C2.34 6.34 1.68 5.68 1 5 C1.99 5 2.98 5 4 5 C2.68 3.35 1.36 1.7 0 0 Z " fill="#ED4291" transform="translate(337,306)"/>
<path d="M0 0 C0.66 0.33 1.32 0.66 2 1 C1.67 2.65 1.34 4.3 1 6 C-0.65 6.33 -2.3 6.66 -4 7 C-4 5.68 -4 4.36 -4 3 C-3.34 3 -2.68 3 -2 3 C-1.67 2.34 -1.34 1.68 -1 1 C-0.67 0.67 -0.34 0.34 0 0 Z " fill="#B43791" transform="translate(197,316)"/>
<path d="M0 0 C0.99 0.33 1.98 0.66 3 1 C3.3721042 2.32303717 3.70630173 3.65737935 4 5 C4.66 5.33 5.32 5.66 6 6 C6 7.98 6 9.96 6 12 C6.66 12.33 7.32 12.66 8 13 C7.01 13 6.02 13 5 13 C4.35309078 11.3962669 3.70751236 9.79199694 3.0625 8.1875 C2.70285156 7.29417969 2.34320313 6.40085937 1.97265625 5.48046875 C1.26386514 3.6729091 0.6139753 1.84192591 0 0 Z " fill="#E173AD" transform="translate(321,293)"/>
<path d="M0 0 C0.66666667 1.33333333 1.33333333 2.66666667 2 4 C2.556875 5.03125 3.11375 6.0625 3.6875 7.125 C4.120625 8.07375 4.55375 9.0225 5 10 C4.67 10.66 4.34 11.32 4 12 C1.113505 10.5567525 0.3533925 8.90012678 -1 6 C-0.6875 2.6875 -0.6875 2.6875 0 0 Z " fill="#E576AD" transform="translate(342,260)"/>
<path d="M0 0 C3 3.625 3 3.625 3 7 C1.02 7.33 -0.96 7.66 -3 8 C-1.125 1.125 -1.125 1.125 0 0 Z " fill="#C364A9" transform="translate(202,297)"/>
<path d="M0 0 C1.98 0.99 1.98 0.99 4 2 C4 4.97 4 7.94 4 11 C3.34 9.68 2.68 8.36 2 7 C1.34 6.01 0.68 5.02 0 4 C0 2.68 0 1.36 0 0 Z " fill="#E062A2" transform="translate(312,270)"/>
<path d="M0 0 C1.2380014 3.57644848 0.74926071 6.33694766 0 10 C-1.32 10.33 -2.64 10.66 -4 11 C-3.52269162 9.5410574 -3.04308958 8.08286504 -2.5625 6.625 C-2.29566406 5.81289063 -2.02882812 5.00078125 -1.75390625 4.1640625 C-1 2 -1 2 0 0 Z " fill="#BF6AAB" transform="translate(197,308)"/>
<path d="M0 0 C0 0.66 0 1.32 0 2 C-5.41538462 5.07692308 -5.41538462 5.07692308 -8.375 4.6875 C-8.91125 4.460625 -9.4475 4.23375 -10 4 C-4.5 0 -4.5 0 0 0 Z " fill="#D96DAA" transform="translate(282,241)"/>
<path d="M0 0 C0.99 0.33 1.98 0.66 3 1 C3.125 5.75 3.125 5.75 2 8 C1.01 8 0.02 8 -1 8 C-0.67 5.36 -0.34 2.72 0 0 Z " fill="#E8208C" transform="translate(298,168)"/>
<path d="M0 0 C1.50559539 1.96382007 2.89131683 3.78263366 4 6 C1 8 1 8 -2 8 C-1.47731534 5.23723823 -0.89130413 2.6739124 0 0 Z " fill="#CF5AA2" transform="translate(240,209)"/>
<path d="M0 0 C0.33 0 0.66 0 1 0 C1.5497272 5.63470383 -0.04952165 8.38987758 -3 13 C-3.66 12.67 -4.32 12.34 -5 12 C-4.72285156 11.46890625 -4.44570312 10.9378125 -4.16015625 10.390625 C-3.79792969 9.68421875 -3.43570313 8.9778125 -3.0625 8.25 C-2.52302734 7.20585937 -2.52302734 7.20585937 -1.97265625 6.140625 C-1.04441818 4.09775567 -0.46833422 2.18884624 0 0 Z " fill="#D571B0" transform="translate(256,172)"/>
<path d="M0 0 C0.66 0.33 1.32 0.66 2 1 C2.59355614 3.64860427 2.74209269 6.29197322 3 9 C2.67 8.34 2.34 7.68 2 7 C1.01 6.67 0.02 6.34 -1 6 C-0.67 4.02 -0.34 2.04 0 0 Z " fill="#E92988" transform="translate(325,292)"/>
<path d="M0 0 C0.33 1.32 0.66 2.64 1 4 C1.66 4 2.32 4 3 4 C3 4.66 3 5.32 3 6 C1.35 6.66 -0.3 7.32 -2 8 C-1.47731534 5.23723823 -0.89130413 2.6739124 0 0 Z " fill="#C487B0" transform="translate(192,319)"/>
<path d="M0 0 C1.98 0 3.96 0 6 0 C6.33 1.32 6.66 2.64 7 4 C4.69 3.67 2.38 3.34 0 3 C0 2.01 0 1.02 0 0 Z " fill="#EC2988" transform="translate(330,304)"/>
<path d="M0 0 C2.0625 0.4375 2.0625 0.4375 4 1 C4 1.99 4 2.98 4 4 C2.35 4 0.7 4 -1 4 C-1 1 -1 1 0 0 Z " fill="#C7358C" transform="translate(250,290)"/>
<path d="M0 0 C0.66 0.99 1.32 1.98 2 3 C1.3125 5.625 1.3125 5.625 0 8 C-0.99 8.33 -1.98 8.66 -3 9 C-2.01 6.03 -1.02 3.06 0 0 Z " fill="#C465A2" transform="translate(213,271)"/>
<path d="M0 0 C0.99 0.33 1.98 0.66 3 1 C3.33 2.98 3.66 4.96 4 7 C3.01 7.33 2.02 7.66 1 8 C0.34 5.69 -0.32 3.38 -1 1 C-0.67 0.67 -0.34 0.34 0 0 Z " fill="#EC258C" transform="translate(315,268)"/>
<path d="M0 0 C1.2380014 3.57644848 0.74926071 6.33694766 0 10 C-0.99 10 -1.98 10 -3 10 C-2.39009109 6.44219804 -1.4216319 3.3171411 0 0 Z " fill="#D074B0" transform="translate(230,232)"/>
<path d="M0 0 C3 3.625 3 3.625 3 7 C0.03 6.505 0.03 6.505 -3 6 C-2.34 5.34 -1.68 4.68 -1 4 C-0.3574765 1.93125966 -0.3574765 1.93125966 0 0 Z " fill="#E589B9" transform="translate(366,316)"/>
<path d="M0 0 C0.66 0 1.32 0 2 0 C2.66 1.98 3.32 3.96 4 6 C2.35 5.67 0.7 5.34 -1 5 C-0.67 3.35 -0.34 1.7 0 0 Z " fill="#BA3494" transform="translate(204,297)"/>
<path d="M0 0 C1.76462683 3.08809695 2 4.23312136 2 8 C0.68 7.67 -0.64 7.34 -2 7 C-2 6.34 -2 5.68 -2 5 C-1.34 5 -0.68 5 0 5 C0 3.35 0 1.7 0 0 Z " fill="#E7529B" transform="translate(347,272)"/>
<path d="M0 0 C2 2 2 2 2 6 C1.01 6 0.02 6 -1 6 C-1 6.66 -1 7.32 -1 8 C-1.66 7.67 -2.32 7.34 -3 7 C-2.01 4.69 -1.02 2.38 0 0 Z " fill="#C967AB" transform="translate(217,262)"/>
</svg>
